<svg width="27" height="27" viewBox="0 0 27 27" fill="none" xmlns="http://www.w3.org/2000/svg">
<path d="M9.1391 2.98828H18.0415C21.4329 2.98828 24.1884 5.74379 24.1884 9.13519V18.0376C24.1884 21.429 21.4329 24.1845 18.0415 24.1845H9.1391C5.7477 24.1845 2.99219 21.429 2.99219 18.0376V9.13519C2.99219 5.74379 5.7477 2.98828 9.1391 2.98828ZM8.92713 5.1079C6.81811 5.1079 5.11181 6.8142 5.11181 8.92323V18.2496C5.11181 20.3586 6.81811 22.0649 8.92713 22.0649H18.2535C20.3625 22.0649 22.0688 20.3586 22.0688 18.2496V8.92323C22.0688 6.8142 20.3625 5.1079 18.2535 5.1079H8.92713ZM19.1543 6.69762C19.8856 6.69762 20.4791 7.29112 20.4791 8.02239C20.4791 8.75366 19.8856 9.34715 19.1543 9.34715C18.423 9.34715 17.8296 8.75366 17.8296 8.02239C17.8296 7.29112 18.423 6.69762 19.1543 6.69762ZM13.5903 8.28734C16.5154 8.28734 18.8894 10.6613 18.8894 13.5864C18.8894 16.5115 16.5154 18.8855 13.5903 18.8855C10.6652 18.8855 8.29125 16.5115 8.29125 13.5864C8.29125 10.6613 10.6652 8.28734 13.5903 8.28734ZM13.5903 10.407C11.831 10.407 10.4109 11.8271 10.4109 13.5864C10.4109 15.3457 11.831 16.7658 13.5903 16.7658C15.3496 16.7658 16.7697 15.3457 16.7697 13.5864C16.7697 11.8271 15.3496 10.407 13.5903 10.407Z" fill="#ECE3E9"/>
</svg>
