<svg width="27" height="27" viewBox="0 0 27 27" fill="none" xmlns="http://www.w3.org/2000/svg">
<path d="M21.3074 16.3417C22.9501 17.8678 23.2893 18.5991 23.3422 18.6945C24.0205 19.8179 22.6004 19.9026 22.6004 19.9026L19.8661 19.945C19.8661 19.945 19.2726 20.0616 18.5095 19.5317C17.4815 18.8322 16.4959 16.9988 15.7646 17.2425C15.0121 17.4863 15.0333 19.129 15.0333 19.129C15.0333 19.129 15.0333 19.3621 14.8637 19.5423C14.673 19.7437 14.302 19.6695 14.302 19.6695H13.0833C13.0833 19.6695 10.3807 19.945 8.01737 17.4757C5.42083 14.7838 3.13163 9.4847 3.13163 9.4847C3.13163 9.4847 3.00446 9.16675 3.14223 8.98658C3.3012 8.81701 3.74633 8.81702 3.74633 8.81702H6.67141C6.67141 8.81702 6.95755 8.81701 7.13772 8.98658C7.29669 9.10316 7.39208 9.34692 7.39208 9.34692C7.39208 9.34692 7.85839 10.5233 8.49428 11.6043C9.71306 13.7133 10.2748 14.1691 10.6669 13.9465C11.3028 13.618 11.1226 10.9684 11.1226 10.9684C11.1226 10.9684 11.1332 10.004 10.8153 9.58008C10.5715 9.25154 10.1052 9.14556 9.90383 9.12436C9.73426 9.10316 10.0098 8.72163 10.3595 8.54146C10.8895 8.28711 11.8115 8.28711 12.9137 8.28711C13.7721 8.28711 14.0159 8.3507 14.3444 8.42489C15.3619 8.66864 15.0121 9.61187 15.0121 11.8587C15.0121 12.5899 14.9061 13.5862 15.4043 13.9359C15.6268 14.0843 16.1779 13.9571 17.5557 11.6361C18.1916 10.5339 18.6791 9.23034 18.6791 9.23034C18.6791 9.23034 18.7851 9.00778 18.944 8.9018C19.1136 8.81702 19.3468 8.81702 19.3468 8.81702H22.4202C22.4202 8.81702 23.3528 8.71103 23.5012 9.12436C23.6602 9.55888 23.1515 10.5869 21.8903 12.2508C19.8343 15.0063 19.6011 14.752 21.3074 16.3417Z" fill="#ECE3E9"/>
</svg>
