<svg width="26" height="27" viewBox="0 0 26 27" fill="none" xmlns="http://www.w3.org/2000/svg">
<path d="M19.3586 14.3707C19.0619 13.7666 18.2246 13.2579 17.1118 14.1163C15.5963 15.3245 13.1799 15.3245 13.1799 15.3245C13.1799 15.3245 10.7636 15.3245 9.24804 14.1163C8.13523 13.2579 7.29798 13.7666 7.00124 14.3707C6.47133 15.4305 7.06482 15.9498 8.41079 16.8082C9.56598 17.5501 11.1451 17.8256 12.1625 17.9316L11.3147 18.7795C10.1065 19.9771 8.94069 21.1323 8.14583 21.9377C7.66892 22.4252 7.66892 23.1989 8.14583 23.6546L8.29421 23.8242C8.77112 24.3011 9.55538 24.3011 10.0323 23.8242L13.1799 20.6659C14.3987 21.8635 15.5539 23.0187 16.3594 23.8242C16.8363 24.3011 17.61 24.3011 18.0975 23.8242L18.2352 23.6546C18.7228 23.1989 18.7228 22.4252 18.2352 21.9377L15.077 18.7795L14.2398 17.921C15.2466 17.8256 16.8045 17.5395 17.9491 16.8082C19.2951 15.9498 19.8885 15.4305 19.3586 14.3707ZM13.1799 5.712C14.6425 5.712 15.8295 6.89899 15.8295 8.35093C15.8295 9.81347 14.6425 10.9899 13.1799 10.9899C11.7174 10.9899 10.5304 9.81347 10.5304 8.35093C10.5304 6.89899 11.7174 5.712 13.1799 5.712ZM13.1799 13.7136C16.1474 13.7136 18.5426 11.3184 18.5426 8.35093C18.5426 5.39405 16.1474 2.98828 13.1799 2.98828C10.2125 2.98828 7.81729 5.39405 7.81729 8.35093C7.81729 11.3184 10.2125 13.7136 13.1799 13.7136Z" fill="#ECE3E9"/>
</svg>
