<svg width="26" height="26" viewBox="0 0 26 26" fill="none" xmlns="http://www.w3.org/2000/svg">
<path d="M15.4355 2.4375C10.9573 2.4375 7.31055 6.08423 7.31055 10.5625C7.31055 12.5081 7.99292 14.2917 9.13867 15.6914L2.66406 22.166L3.83203 23.334L10.3066 16.8594C11.7063 18.0051 13.49 18.6875 15.4355 18.6875C19.9138 18.6875 23.5605 15.0408 23.5605 10.5625C23.5605 6.08423 19.9138 2.4375 15.4355 2.4375ZM15.4355 4.0625C19.0347 4.0625 21.9355 6.96338 21.9355 10.5625C21.9355 14.1616 19.0347 17.0625 15.4355 17.0625C11.8364 17.0625 8.93555 14.1616 8.93555 10.5625C8.93555 6.96338 11.8364 4.0625 15.4355 4.0625ZM14.623 7.3125V9.75H12.1855V11.375H14.623V13.8125H16.248V11.375H18.6855V9.75H16.248V7.3125H14.623Z" fill="white"/>
</svg>
