<svg width="32" height="32" viewBox="0 0 32 32" fill="none" xmlns="http://www.w3.org/2000/svg">
<path d="M24.5312 5.625L23.6562 6.0625L7.84375 13.8438L6.9375 14.2812L7.40625 15.1562L7.8125 16H4L3.75 16.125L2.84375 16.6562L2.03125 17.0938L2.46875 17.9375L5.65625 24.4375L6.09375 25.3438L7 24.9062L7.875 24.4375L8.09375 24.3438L8.25 24.1562L10.375 21.2188L10.9375 22.3438L11.375 23.25L12.2812 22.8125L20 19V26H29V24H22V18.0312L28.0625 15.0312L28.9688 14.5938L28.5312 13.7188L24.9688 6.53125L24.5312 5.625ZM23.625 8.3125L26.2812 13.6875L12.2812 20.5625L10.4375 16.8438L10.3125 16.5625L9.625 15.1875L23.625 8.3125ZM4.71875 18H8.75L9.34375 19.2188L6.9375 22.5312L4.71875 18Z" fill="white"/>
</svg>
