<svg width="32" height="32" viewBox="0 0 32 32" fill="none" xmlns="http://www.w3.org/2000/svg">
<path d="M3 5V21H6.59375L6.5 22L7.5 22.0938L9.78125 22.3438L9.625 23.2188L9.4375 24.1875L10.4062 24.375L26.125 27.375L27.0938 27.5625L27.2812 26.5938L29.9688 12.7812L30.1875 11.8125L29.1875 11.625L25.8125 10.9688L26 9L26.0938 8.03125L25.125 7.90625L21 7.40625V5H3ZM5 7H19V19H5V7ZM12 9C10.3555 9 9 10.3555 9 12C9 12.6719 9.21484 13.3086 9.59375 13.8125C8.625 14.543 8 15.6914 8 17H10C10 15.8086 10.8086 15 12 15C13.1914 15 14 15.8086 14 17H16C16 15.6914 15.375 14.543 14.4062 13.8125C14.7852 13.3086 15 12.6719 15 12C15 10.3555 13.6445 9 12 9ZM21 9.40625L23.9062 9.78125L22.6875 21.6875L16.2812 21H21V9.40625ZM12 11C12.5625 11 13 11.4375 13 12C13 12.5625 12.5625 13 12 13C11.4375 13 11 12.5625 11 12C11 11.4375 11.4375 11 12 11ZM25.5938 12.9688L27.8438 13.4062L25.5 25.2188L11.7812 22.5938V22.5312L23.5 23.7812L24.5 23.9062L24.5938 22.9062L25.5938 12.9688Z" fill="#32393F"/>
</svg>
