<svg width="52" height="52" viewBox="0 0 52 52" fill="none" xmlns="http://www.w3.org/2000/svg">
<path d="M43.72 8.16C48.6667 13.1067 51.14 19.08 51.14 26.08C51.14 33.08 48.6667 39.0533 43.72 44C38.7733 48.9467 32.8 51.42 25.8 51.42C18.8 51.42 12.8267 48.9467 7.88 44C2.93333 39.0533 0.46 33.08 0.46 26.08C0.46 19.08 2.93333 13.1067 7.88 8.16C12.8267 3.21333 18.8 0.739996 25.8 0.739996C32.8 0.739996 38.7733 3.21333 43.72 8.16ZM40.85 41.41C45.05 37.1633 47.15 32.0533 47.15 26.08C47.15 20.1067 45.05 15.02 40.85 10.82C36.6967 6.57333 31.68 4.45 25.8 4.45C19.92 4.45 14.9033 6.57333 10.75 10.82C6.59667 15.02 4.52 20.1067 4.52 26.08C4.52 32.0533 6.59667 37.1633 10.75 41.41C14.9033 45.61 19.92 47.71 25.8 47.71C31.68 47.71 36.6967 45.61 40.85 41.41ZM36.44 39.94H31.96L25.59 28.6H21.39V39.94H17.54V12.15H26.99C29.4167 12.15 31.47 12.9667 33.15 14.6C34.8767 16.1867 35.74 18.1467 35.74 20.48C35.74 24.3533 33.7567 26.8967 29.79 28.11L36.44 39.94ZM30.35 23.98C31.33 23.0467 31.82 21.88 31.82 20.48C31.82 19.08 31.33 17.9133 30.35 16.98C29.37 16.0467 28.11 15.58 26.57 15.58H21.39V25.31H26.57C28.11 25.31 29.37 24.8667 30.35 23.98Z" fill="white"/>
</svg>
