<svg width="105" height="105" viewBox="0 0 105 105" fill="none" xmlns="http://www.w3.org/2000/svg">
<path fill-rule="evenodd" clip-rule="evenodd" d="M7.02897 63.443C6.49321 63.443 5.96715 63.5958 5.4508 63.9006C4.93445 64.2064 4.47536 64.7347 4.07354 65.4885C3.67172 66.2413 3.34657 67.2515 3.0981 68.5201C2.84963 69.7877 2.7254 71.3843 2.7254 73.3108C2.7254 75.2364 2.84963 76.8329 3.0981 78.1015C3.34657 79.3691 3.68142 80.3803 4.10266 81.1331C4.52292 81.8868 5.01112 82.4161 5.56533 82.72C6.1205 83.0257 6.70285 83.1786 7.31529 83.1786C7.81223 83.1786 8.31985 83.0451 8.8362 82.778C9.35255 82.5119 9.82619 82.1394 10.2562 81.6624C10.6861 81.1853 11.0501 80.6231 11.3471 79.9748C11.6431 79.3275 11.8295 78.6308 11.9062 77.8867H12.3361C12.2594 78.745 12.0682 79.5307 11.7625 80.2467C11.4568 80.9618 11.0685 81.582 10.6007 82.1065C10.1319 82.6309 9.59131 83.0354 8.97984 83.3209C8.3674 83.6073 7.71711 83.7505 7.02897 83.7505C6.13021 83.7505 5.25959 83.5357 4.4181 83.107C3.5766 82.6774 2.82537 82.0291 2.16634 81.1621C1.50635 80.2951 0.979319 79.2075 0.588174 77.9012C0.196058 76.5949 0 75.0651 0 73.3108C0 71.5565 0.196058 70.0257 0.588174 68.7204C0.979319 67.4141 1.49664 66.3274 2.13723 65.4585C2.77781 64.5915 3.49993 63.9432 4.30357 63.5146C5.10624 63.0849 5.91959 62.8711 6.74168 62.8711C7.20076 62.8711 7.61714 62.9475 7.98985 63.0995C8.36255 63.2523 8.68284 63.4246 8.95072 63.6142C9.25646 63.8252 9.52531 64.0622 9.75437 64.3293C9.90772 64.0439 10.1135 63.772 10.3717 63.5146C10.6289 63.2572 10.9016 63.0907 11.1889 63.0143H11.6189C11.581 63.2997 11.5519 63.5862 11.5325 63.8726C11.514 64.1387 11.4995 64.4203 11.4898 64.7154C11.4801 65.0115 11.4752 65.3018 11.4752 65.5882C11.4752 65.9123 11.4801 66.2316 11.4898 66.5461C11.4995 66.8616 11.514 67.1509 11.5325 67.4189C11.5519 67.7237 11.581 68.0189 11.6189 68.3053H11.1889C10.7482 66.7222 10.1601 65.5166 9.42437 64.6873C8.6877 63.8581 7.88988 63.443 7.02897 63.443Z" fill="#815A88"/>
<path fill-rule="evenodd" clip-rule="evenodd" d="M27.1066 73.3108C27.1066 71.3465 26.9872 69.7209 26.7484 68.434C26.5087 67.147 26.1933 66.1223 25.8011 65.3589C25.409 64.5973 24.9732 64.0622 24.4957 63.7584C24.0182 63.4526 23.5494 63.2998 23.0903 63.2998C22.6312 63.2998 22.1624 63.4526 21.6839 63.7584C21.2064 64.0622 20.7706 64.5973 20.3795 65.3589C19.9864 66.1223 19.6709 67.147 19.4322 68.434C19.1924 69.7209 19.0731 71.3465 19.0731 73.3108C19.0731 75.2751 19.1924 76.9007 19.4322 78.1876C19.6709 79.4746 19.9864 80.4993 20.3795 81.2627C20.7706 82.0252 21.2064 82.5584 21.6839 82.8641C22.1624 83.1689 22.6312 83.3209 23.0903 83.3209C23.5494 83.3209 24.0182 83.1689 24.4957 82.8641C24.9732 82.5584 25.409 82.0252 25.8011 81.2627C26.1933 80.4993 26.5087 79.4746 26.7484 78.1876C26.9872 76.9007 27.1066 75.2751 27.1066 73.3108ZM29.832 73.3108C29.832 75.0651 29.6359 76.5949 29.2438 77.9012C28.8517 79.2075 28.3353 80.2951 27.6947 81.1621C27.0542 82.0291 26.332 82.6774 25.5284 83.107C24.7257 83.5357 23.9124 83.7505 23.0903 83.7505C22.2672 83.7505 21.4549 83.5357 20.6512 83.107C19.8486 82.6774 19.1264 82.0291 18.4849 81.1621C17.8443 80.2951 17.3279 79.2075 16.9358 77.9012C16.5437 76.5949 16.3477 75.0651 16.3477 73.3108C16.3477 71.5565 16.5437 70.0257 16.9358 68.7204C17.3279 67.4141 17.8443 66.3274 18.4849 65.4585C19.1264 64.5915 19.8486 63.9432 20.6512 63.5146C21.4549 63.0849 22.2672 62.8711 23.0903 62.8711C23.9124 62.8711 24.7257 63.0849 25.5284 63.5146C26.332 63.9432 27.0542 64.5915 27.6947 65.4585C28.3353 66.3274 28.8517 67.4141 29.2438 68.7204C29.6359 70.0257 29.832 71.5565 29.832 73.3108Z" fill="#815A88"/>
<path fill-rule="evenodd" clip-rule="evenodd" d="M44.8979 68.3053C44.8979 66.8752 44.5146 65.7798 43.7507 65.0154C42.9849 64.2529 41.8852 63.8726 40.4527 63.8726H39.3035V72.739H40.4527C41.8852 72.739 42.9849 72.3568 43.7507 71.5943C44.5146 70.8318 44.8979 69.7355 44.8979 68.3053ZM40.4527 63.2998C41.6756 63.2998 42.7364 63.4343 43.6371 63.7004C44.5359 63.9665 45.2803 64.3294 45.8743 64.787C46.4674 65.2447 46.907 65.774 47.1934 66.3749C47.4797 66.9758 47.6243 67.6193 47.6243 68.3053C47.6243 68.8588 47.5428 69.3494 47.3817 69.7781C47.2186 70.2077 47.008 70.5889 46.7498 70.9228C46.4907 71.2566 46.1888 71.5372 45.8452 71.7665C45.5007 71.9949 45.1581 72.1865 44.8125 72.3384C43.9895 72.7003 43.0626 72.9296 42.0299 73.0244C42.8714 73.1202 43.6371 73.3196 44.3253 73.6253C44.9164 73.8924 45.4725 74.2833 45.9898 74.7981C46.5052 75.3129 46.811 76.0096 46.907 76.8862L47.4797 81.8918C47.5195 82.2537 47.6049 82.512 47.7398 82.6639C47.8718 82.8168 48.0261 82.8923 48.1979 82.8923C48.293 82.8923 48.393 82.8594 48.4998 82.7926C48.6036 82.7259 48.7046 82.6446 48.8007 82.5497C48.8958 82.4539 48.9812 82.3301 49.0588 82.1772L49.3452 82.4636C49.2316 82.7113 49.0685 82.931 48.8579 83.1206C48.6852 83.2745 48.46 83.4167 48.1834 83.5503C47.9067 83.6828 47.5767 83.7506 47.1934 83.7506C46.5431 83.7506 46.0122 83.5638 45.6016 83.1932C45.1901 82.8207 44.9562 82.3881 44.8979 81.8918L44.3253 76.8862C44.2476 76.2379 44.1244 75.6902 43.9516 75.2413C43.7798 74.7933 43.5459 74.4265 43.2489 74.1401C42.9529 73.8537 42.5753 73.6437 42.1153 73.5112C41.6562 73.3776 41.103 73.3109 40.4527 73.3109H39.3035V82.6059L41.0253 83.0355V83.3209H35.1445V83.0355L36.8664 82.6059V64.0149L35.1445 63.5862V63.2998H40.4527Z" fill="#815A88"/>
<path fill-rule="evenodd" clip-rule="evenodd" d="M65.6963 64.3013L63.8318 63.5862V63.2998H68.1354V63.5862L66.2709 64.3013V83.6074H65.8409L56.0865 65.7314V82.3204L57.951 83.0355V83.3209H53.6484V83.0355L55.512 82.3204V64.1581L53.6484 63.5862V63.2998H57.5201L65.6963 78.3164V64.3013Z" fill="#815A88"/>
<path fill-rule="evenodd" clip-rule="evenodd" d="M83.3355 82.75C83.3355 81.9479 83.4976 81.2047 83.8228 80.5187C84.1479 79.8317 84.5594 79.2414 85.0564 78.745H85.3427C85.3048 78.9937 85.2767 79.2501 85.2573 79.5172C85.2379 79.7455 85.2233 79.9942 85.2136 80.2603C85.2049 80.5284 85.2 80.7857 85.2 81.0335C85.2 81.3954 85.2049 81.7147 85.2136 81.9914C85.2233 82.2682 85.2379 82.512 85.2573 82.72C85.2767 82.9503 85.3048 83.1497 85.3427 83.3209H73.4375V83.0355L75.1583 82.6058V64.0149L73.4375 63.5862V63.2998H85.0564C85.0175 63.472 84.9894 63.6723 84.97 63.9007C84.9515 64.1107 84.937 64.3535 84.9273 64.6303C84.9176 64.9061 84.9127 65.2263 84.9127 65.5882C84.9127 65.8553 84.9176 66.1175 84.9273 66.3749C84.937 66.6313 84.9515 66.8752 84.97 67.1045C84.9894 67.3716 85.0175 67.629 85.0564 67.8767H84.7691C84.2721 67.3812 83.8606 66.7891 83.5364 66.103C83.2103 65.417 83.0482 64.6729 83.0482 63.8726H77.5974V72.4526H80.3219L81.6137 69.8787H81.9V75.5993H81.6137L80.3219 73.0244H77.5974V82.75H83.3355Z" fill="#815A88"/>
<path fill-rule="evenodd" clip-rule="evenodd" d="M100.551 68.3053C100.551 66.8752 100.169 65.7798 99.405 65.0154C98.6382 64.2529 97.5395 63.8726 96.105 63.8726H94.9578V72.739H96.105C97.5395 72.739 98.6382 72.3568 99.405 71.5943C100.169 70.8318 100.551 69.7355 100.551 68.3053ZM96.105 63.2998C97.3289 63.2998 98.3907 63.4343 99.2895 63.7004C100.188 63.9665 100.935 64.3294 101.527 64.787C102.12 65.2447 102.56 65.774 102.847 66.3749C103.133 66.9758 103.278 67.6193 103.278 68.3053C103.278 68.8588 103.196 69.3494 103.034 69.7781C102.871 70.2077 102.66 70.5889 102.402 70.9228C102.144 71.2566 101.842 71.5372 101.499 71.7665C101.154 71.9949 100.81 72.1865 100.466 72.3384C99.6437 72.7003 98.7159 72.9296 97.6822 73.0244C98.5237 73.1202 99.2895 73.3196 99.9776 73.6253C100.571 73.8924 101.126 74.2833 101.642 74.7981C102.158 75.3129 102.464 76.0096 102.56 76.8862L103.133 81.8918C103.172 82.2537 103.257 82.512 103.392 82.6639C103.526 82.8168 103.679 82.8923 103.851 82.8923C103.946 82.8923 104.047 82.8594 104.152 82.7926C104.258 82.7259 104.358 82.6446 104.454 82.5497C104.549 82.4539 104.634 82.3301 104.711 82.1772L104.998 82.4636C104.884 82.7113 104.721 82.931 104.51 83.1206C104.339 83.2745 104.113 83.4167 103.837 83.5503C103.559 83.6828 103.229 83.7506 102.847 83.7506C102.196 83.7506 101.666 83.5638 101.255 83.1932C100.843 82.8207 100.609 82.3881 100.551 81.8918L99.9776 76.8862C99.9009 76.2379 99.7767 75.6902 99.6049 75.2413C99.4331 74.7933 99.1992 74.4265 98.9022 74.1401C98.6052 73.8537 98.2286 73.6437 97.7686 73.5112C97.3095 73.3776 96.7553 73.3109 96.105 73.3109H94.9578V82.6059L96.6786 83.0355V83.3209H90.7969V83.0355L92.5187 82.6059V64.0149L90.7969 63.5862V63.2998H96.105Z" fill="#815A88"/>
<path fill-rule="evenodd" clip-rule="evenodd" d="M19.9449 101.604V103.897H21.6823C21.8958 103.897 22.0822 103.864 22.2404 103.8C22.3986 103.736 22.5277 103.649 22.6286 103.544C22.7286 103.438 22.8043 103.316 22.8567 103.176C22.9081 103.037 22.9343 102.894 22.9343 102.746C22.9343 102.597 22.9081 102.453 22.8567 102.314C22.8043 102.177 22.7286 102.054 22.6286 101.946C22.5277 101.841 22.3986 101.757 22.2404 101.696C22.0822 101.634 21.8958 101.604 21.6823 101.604H19.9449ZM19.9449 98.6904V100.878H21.5367C21.9502 100.878 22.2608 100.773 22.4685 100.562C22.6752 100.352 22.779 100.092 22.779 99.779C22.779 99.4751 22.6752 99.2177 22.4685 99.0068C22.2608 98.7968 21.9502 98.6904 21.5367 98.6904H19.9449ZM23.7885 102.816C23.7885 103.1 23.738 103.357 23.638 103.589C23.538 103.821 23.4012 104.017 23.2304 104.178C23.0586 104.339 22.8615 104.463 22.6383 104.55C22.4151 104.637 22.1773 104.681 21.9249 104.681H19.0898V97.9463H21.6435C21.9735 97.9463 22.2607 97.9898 22.5073 98.0769C22.7528 98.164 22.9596 98.285 23.1285 98.4398C23.2964 98.5956 23.4225 98.7813 23.507 98.9981C23.5905 99.2139 23.6332 99.4509 23.6332 99.7103C23.6332 99.8457 23.6147 99.986 23.5788 100.131C23.5439 100.277 23.4837 100.416 23.4002 100.548C23.3158 100.681 23.209 100.804 23.0799 100.917C22.9499 101.029 22.7946 101.118 22.614 101.183V101.212C22.8082 101.257 22.979 101.335 23.1285 101.444C23.277 101.554 23.4002 101.682 23.4973 101.83C23.5943 101.979 23.6671 102.138 23.7157 102.308C23.7642 102.48 23.7885 102.648 23.7885 102.816Z" fill="#815A88"/>
<path fill-rule="evenodd" clip-rule="evenodd" d="M28.4766 102.01V104.681H27.6613V102.01L25.6328 97.9463H26.5355L27.4769 99.8128L28.0787 101.1L28.7096 99.7557L29.6219 97.9463H30.5052L28.4766 102.01Z" fill="#815A88"/>
<path fill-rule="evenodd" clip-rule="evenodd" d="M41.0388 97.9463V102.243C41.0388 102.623 40.9825 102.968 40.8689 103.277C40.7553 103.588 40.5933 103.85 40.3836 104.067C40.174 104.283 39.9206 104.448 39.6266 104.565C39.3325 104.681 39.0005 104.738 38.6317 104.738C38.2309 104.738 37.8795 104.671 37.5786 104.535C37.2777 104.4 37.0273 104.219 36.8264 103.994C36.6255 103.768 36.477 103.503 36.38 103.2C36.2829 102.897 36.2344 102.578 36.2344 102.243V97.9463H37.0885V102.175C37.0885 102.4 37.1205 102.618 37.1855 102.828C37.2496 103.037 37.3467 103.223 37.4748 103.384C37.6039 103.546 37.766 103.677 37.9591 103.776C38.1532 103.876 38.3813 103.925 38.6463 103.925C39.1238 103.925 39.4984 103.776 39.7741 103.476C40.0478 103.176 40.1846 102.743 40.1846 102.175V97.9463H41.0388Z" fill="#815A88"/>
<path fill-rule="evenodd" clip-rule="evenodd" d="M48.0734 104.681L45.6033 100.888L44.7084 99.4161L44.6783 99.4268V104.681H43.8242V97.9463H44.6696L47.0475 101.614L48.0278 103.23L48.0569 103.21V97.9463H48.911V104.681H48.0734Z" fill="#815A88"/>
<path fill-rule="evenodd" clip-rule="evenodd" d="M51.8125 104.681H52.6666V97.9463H51.8125V104.681Z" fill="#815A88"/>
<path fill-rule="evenodd" clip-rule="evenodd" d="M59.9056 102.764C59.9056 103.075 59.8454 103.351 59.726 103.593C59.6067 103.835 59.4397 104.042 59.2262 104.211C59.0117 104.382 58.7574 104.514 58.4594 104.604C58.1615 104.694 57.8354 104.738 57.4791 104.738C57.2656 104.738 57.0434 104.72 56.8143 104.681C56.5843 104.643 56.3542 104.585 56.1252 104.507C55.8952 104.43 55.6758 104.334 55.4652 104.222C55.2546 104.108 55.0624 103.974 54.8867 103.82L55.4312 103.133C55.703 103.391 56.0165 103.588 56.3727 103.722C56.7289 103.859 57.1094 103.926 57.518 103.926C57.7315 103.926 57.9305 103.903 58.1149 103.859C58.2993 103.813 58.4575 103.744 58.5905 103.65C58.7234 103.558 58.8283 103.437 58.9059 103.287C58.9836 103.139 59.0224 102.962 59.0224 102.755C59.0224 102.561 58.9797 102.404 58.8962 102.281C58.8118 102.159 58.6982 102.057 58.5565 101.977C58.4138 101.896 58.2488 101.83 58.0615 101.778C57.8742 101.726 57.6733 101.682 57.4597 101.643C57.1938 101.591 56.9327 101.535 56.6736 101.473C56.4154 101.413 56.1815 101.317 55.9747 101.187C55.768 101.059 55.5991 100.883 55.47 100.66C55.34 100.438 55.2759 100.142 55.2759 99.7745C55.2759 99.4658 55.3361 99.1929 55.4574 98.9578C55.5778 98.7217 55.7428 98.5233 55.9524 98.3617C56.1611 98.2011 56.3999 98.0802 56.6687 97.9989C56.9376 97.9186 57.2239 97.8779 57.5277 97.8779C57.9868 97.8779 58.3915 97.9302 58.7409 98.0337C59.0893 98.1363 59.4077 98.3008 59.6921 98.5262L59.2165 99.252C58.97 99.0846 58.7069 98.953 58.4255 98.8562C58.144 98.7594 57.8441 98.7111 57.5277 98.7111C57.0744 98.7111 56.7289 98.8039 56.4892 98.9917C56.2494 99.1784 56.13 99.4397 56.13 99.7745C56.13 99.9496 56.1708 100.096 56.2514 100.215C56.3319 100.335 56.4532 100.436 56.6144 100.521C56.7755 100.605 56.9735 100.676 57.2093 100.737C57.4452 100.799 57.714 100.858 58.0178 100.917C58.2314 100.962 58.4478 101.018 58.671 101.082C58.8933 101.146 59.0971 101.244 59.2815 101.377C59.465 101.508 59.6144 101.685 59.7319 101.904C59.8474 102.123 59.9056 102.41 59.9056 102.764Z" fill="#815A88"/>
<path fill-rule="evenodd" clip-rule="evenodd" d="M64.3892 98.6904V104.681H63.536V98.6904H61.6133V97.9463H66.3109V98.6904H64.3892Z" fill="#815A88"/>
<path fill-rule="evenodd" clip-rule="evenodd" d="M72.3659 99.7848C72.3659 99.4045 72.2494 99.1258 72.0165 98.9526C71.7836 98.7784 71.4827 98.6904 71.1139 98.6904H69.3658V100.975H71.075C71.4439 100.975 71.7506 100.873 71.9961 100.67C72.2427 100.466 72.3659 100.172 72.3659 99.7848ZM72.1815 104.681L70.8906 101.72H69.3658V104.681H68.5117V97.9463H71.2682C71.5409 97.9463 71.7962 97.9918 72.0349 98.0808C72.2747 98.1717 72.4814 98.2975 72.6571 98.4591C72.8318 98.6198 72.9687 98.8133 73.0696 99.0397C73.1696 99.2652 73.22 99.5138 73.22 99.7848C73.22 100.249 73.0851 100.641 72.8172 100.96C72.5484 101.28 72.197 101.503 71.7642 101.632L73.1317 104.681H72.1815Z" fill="#815A88"/>
<path fill-rule="evenodd" clip-rule="evenodd" d="M77.9324 98.7006C77.6674 98.7006 77.4384 98.749 77.2452 98.8457C77.0511 98.9425 76.889 99.0702 76.7599 99.2289C76.6318 99.3866 76.5348 99.5695 76.4707 99.7756C76.4057 99.9827 76.3737 100.194 76.3737 100.407V102.2C76.3737 102.427 76.4057 102.644 76.4707 102.855C76.5348 103.065 76.6318 103.25 76.7599 103.411C76.889 103.573 77.0511 103.704 77.2452 103.804C77.4384 103.905 77.6674 103.955 77.9324 103.955C78.1702 103.955 78.3847 103.909 78.5749 103.818C78.7652 103.728 78.9263 103.605 79.0593 103.451C79.1903 103.295 79.2922 103.112 79.3631 102.898C79.4339 102.684 79.4698 102.452 79.4698 102.2V100.407C79.4698 100.173 79.4339 99.9546 79.3631 99.7476C79.2922 99.5405 79.1903 99.3595 79.0593 99.2038C78.9263 99.0489 78.7652 98.9261 78.5749 98.8361C78.3847 98.7461 78.1702 98.7006 77.9324 98.7006ZM77.9169 97.8975C78.2857 97.8975 78.6196 97.9594 78.9166 98.0852C79.2146 98.2119 79.4689 98.3842 79.6785 98.6029C79.8891 98.8225 80.0493 99.0857 80.1589 99.3924C80.2696 99.6982 80.3239 100.029 80.3239 100.383V102.242C80.3239 102.622 80.2676 102.968 80.1551 103.277C80.0405 103.587 79.8784 103.849 79.6698 104.066C79.4591 104.283 79.2058 104.447 78.9117 104.564C78.6176 104.681 78.2857 104.738 77.9169 104.738C77.516 104.738 77.1647 104.671 76.8638 104.534C76.5629 104.4 76.3125 104.219 76.1126 103.994C75.9107 103.767 75.7622 103.503 75.6661 103.199C75.5681 102.896 75.5195 102.578 75.5195 102.242V100.383C75.5195 100.054 75.5681 99.7398 75.6661 99.4408C75.7622 99.1409 75.9107 98.8767 76.1126 98.6464C76.3125 98.418 76.5629 98.2352 76.8638 98.1007C77.1647 97.9642 77.516 97.8975 77.9169 97.8975Z" fill="#815A88"/>
<path fill-rule="evenodd" clip-rule="evenodd" d="M85.1299 102.01V104.681H84.3146V102.01L82.2852 97.9463H83.1888L84.1293 99.8128L84.731 101.1L85.3629 99.7557L86.2742 97.9463H87.1575L85.1299 102.01Z" fill="#815A88"/>
<path fill-rule="evenodd" clip-rule="evenodd" d="M36.1275 48.3715H33.9922V25.1698L53.6863 14.0566L73.0117 25.2869V48.358H70.8773V26.509L53.6708 16.5115L36.1275 26.4113V48.3715Z" fill="#815A88"/>
<path fill-rule="evenodd" clip-rule="evenodd" d="M79.1508 48.3601H77.0165V23.4602L53.6041 9.98509L29.9868 23.6596V48.3601H27.8516V22.4336L53.6002 7.52539L79.1508 22.2304V48.3601Z" fill="#815A88"/>
<path fill-rule="evenodd" clip-rule="evenodd" d="M85.2361 48.3603H83.1018V20.5711L53.8086 3.44989L23.9126 20.7665V48.3603H21.7773V19.5405L53.8144 0.985352L85.2361 19.3509V48.3603Z" fill="#815A88"/>
<path fill-rule="evenodd" clip-rule="evenodd" d="M56.7388 45.9795C56.6573 46.0405 55.2499 46.7915 54.191 47.1777C53.1311 47.5435 52.0926 47.9703 51.8684 47.1574C51.8073 46.9338 51.8684 45.9998 51.9295 45.2275C51.9499 44.76 51.3996 43.9877 50.2786 44.9023C49.5866 45.4917 48.6286 46.6299 48.4248 46.8728C47.8327 47.6248 47.691 47.9094 47.4251 47.5232C47.2222 47.2793 48.2403 45.5324 47.8948 44.6584C47.7318 44.4755 47.2222 44.3942 46.5496 44.882C45.4489 45.695 44.4706 46.8728 43.9814 47.32C43.4728 47.7264 43.2282 47.9907 42.9419 47.9703C42.6372 47.95 42.311 47.6248 42.8206 46.9135C43.3496 46.2437 44.3279 44.191 44.4512 43.9877C44.5114 43.8658 45.5305 43.4999 45.348 43.9877C45.1849 44.4755 44.3891 46.0608 44.5114 46.0608C44.6142 46.0608 47.6095 43.2764 48.1394 43.2764C48.7713 43.2764 48.9547 44.069 48.9139 44.5771C48.8926 44.9023 48.7916 45.3088 48.7713 45.7763C49.8311 44.5771 51.1143 43.6625 51.6442 43.3577C52.1945 43.0528 52.8865 43.7642 52.8264 44.6787C52.7652 45.4308 52.4595 46.8931 52.8264 47.0761C53.071 47.198 54.456 46.8728 55.312 46.4266C56.1273 45.9998 56.5961 45.6746 56.7174 45.695C56.8407 45.7153 56.8407 45.9185 56.7388 45.9795Z" fill="#815A88"/>
<path fill-rule="evenodd" clip-rule="evenodd" d="M59.8625 49.5139C59.8023 49.4529 58.0485 49.5952 56.4606 50.3877C54.8698 51.1801 52.4667 52.8861 51.8338 53.9834C51.1826 55.0603 51.5077 55.2432 52.059 55.4464C52.6084 55.6496 54.6874 55.548 56.9488 53.4754C59.2113 51.4037 59.9654 49.5952 59.8625 49.5139ZM66.4246 50.1032C66.282 50.0219 64.1428 49.6358 62.7976 49.5139C61.4727 49.392 60.6176 49.4733 60.6176 49.4733C60.6176 49.4733 59.9654 50.7941 58.6813 52.2968C57.3963 53.8208 53.9944 56.5234 52.2221 56.4624C50.4488 56.4015 49.6947 55.4261 50.6313 53.7802C51.5699 52.1342 53.8925 50.8753 55.6851 49.9609C57.4778 49.0465 60.2294 48.884 60.2294 48.884C60.2294 48.884 60.7593 47.6851 60.9632 47.1568C61.0651 46.8113 61.33 46.0808 61.4727 45.5524C61.4329 45.5524 61.4116 45.5931 61.3708 45.6134C61.1883 45.7963 59.4549 46.8723 58.6609 47.2584C57.8854 47.6444 56.7246 47.7257 56.3374 46.7097C55.9501 45.6947 56.6023 44.1707 56.8673 44.1503C56.8673 44.1503 57.8253 44.0081 57.1934 44.7803C56.5616 45.5728 57.1517 46.4872 57.3361 46.6894C57.5399 46.8723 57.8456 47.1771 59.2316 46.5278C60.3517 45.9995 61.4523 44.9225 61.9619 44.3942L62.5316 43.5814C63.8167 42.6467 62.8995 44.13 62.4714 45.0038C62.0425 45.8776 60.8816 48.8637 60.8816 48.8637C62.8383 48.8027 66.3839 49.6765 66.5683 49.7577C66.7711 49.8593 66.5683 50.1641 66.4246 50.1032Z" fill="#815A88"/>
</svg>
